<svg id="Layer_1" data-name="Layer 1" xmlns="http://www.w3.org/2000/svg" viewBox="0 0 481.48 345.65"><defs><style>.cls-1{fill:#58595b;}</style></defs><path class="cls-1" d="M714.48,600.36H705v-42.8a204.82,204.82,0,0,0-93.1-171.78L595.18,524.9a5,5,0,0,1-4.95,4.41,4.26,4.26,0,0,1-.61,0,5,5,0,0,1-4.36-5.56L604.93,360l-48.08-18.49-8.89,231a5,5,0,0,1-5,4.81h-.19a5,5,0,0,1-4.8-5.19l9.43-245H452.6l9.43,245a5,5,0,0,1-4.8,5.19H457a5,5,0,0,1-5-4.81l-8.89-231L395.07,360l19.67,163.73a5,5,0,0,1-4.36,5.56,4.26,4.26,0,0,1-.61,0,5,5,0,0,1-4.95-4.41L388.1,385.78A204.82,204.82,0,0,0,295,557.56v42.8h-9.48a26.26,26.26,0,0,0-4.72,52.1,1190,1190,0,0,0,438.4,0,26.26,26.26,0,0,0-4.72-52.1ZM633,605.29a806.81,806.81,0,0,1-133.62,11.22A783,783,0,0,1,367,605.29a5,5,0,0,1,1.69-9.86,783.42,783.42,0,0,0,262.56,0,5,5,0,0,1,1.66,9.86Z" transform="translate(-259.26 -327.18)"/></svg>