<?xml version="1.0" standalone="no"?>
<!DOCTYPE svg PUBLIC "-//W3C//DTD SVG 20010904//EN"
 "http://www.w3.org/TR/2001/REC-SVG-20010904/DTD/svg10.dtd">
<svg version="1.0" xmlns="http://www.w3.org/2000/svg"
 width="406.000000pt" height="165.000000pt" viewBox="0 0 406.000000 165.000000"
 preserveAspectRatio="xMidYMid meet">

<g transform="translate(0.000000,165.000000) scale(0.100000,-0.100000)"
fill="#000000" stroke="none">
<path d="M276 1452 c-15 -17 -16 -75 -19 -617 -3 -496 -1 -600 11 -611 10 -10
42 -14 113 -14 94 0 100 1 108 23 8 20 16 313 16 580 -1 102 5 128 19 90 4
-10 24 -47 45 -83 142 -243 185 -310 202 -315 25 -8 75 3 87 18 5 7 31 52 56
102 26 49 53 96 60 105 7 8 35 55 61 103 26 48 49 87 50 85 2 -2 5 -152 6
-333 1 -182 6 -340 10 -352 8 -22 14 -23 111 -23 57 0 109 4 117 9 11 7 13
108 8 617 -6 698 5 634 -108 634 -97 0 -111 -8 -160 -92 -23 -40 -58 -98 -77
-128 -35 -54 -70 -116 -153 -272 -23 -43 -44 -78 -48 -78 -10 0 -26 29 -103
183 -102 205 -204 374 -231 381 -12 3 -54 6 -93 6 -56 0 -74 -4 -88 -18z"/>
<path d="M1587 1452 c-18 -19 -19 -56 -24 -619 -5 -500 -3 -600 8 -609 8 -6
58 -14 111 -17 94 -6 98 -6 111 16 10 16 14 87 16 272 2 138 5 252 6 254 2 2
23 -26 47 -62 24 -35 81 -118 127 -183 46 -66 107 -152 134 -192 27 -40 62
-79 78 -87 40 -21 252 -21 269 0 7 8 10 21 7 28 -2 7 -65 93 -139 192 -168
226 -268 371 -268 389 0 8 19 40 43 72 23 33 67 95 96 139 30 44 69 98 88 120
89 106 183 249 183 276 l0 29 -127 0 c-149 -1 -151 -2 -230 -117 -25 -38 -105
-153 -177 -258 l-131 -190 -5 272 c-3 149 -9 275 -13 279 -4 5 -49 10 -100 12
-83 4 -94 2 -110 -16z"/>
<path d="M3140 1431 c-5 -11 -10 -40 -10 -64 l0 -44 -59 -22 c-143 -52 -270
-199 -311 -359 l-14 -52 -51 0 c-28 0 -56 -5 -63 -12 -16 -16 -16 -150 0 -166
17 -17 1329 -17 1346 0 7 7 12 41 12 83 0 42 -5 76 -12 83 -7 7 -35 12 -63 12
l-51 0 -13 49 c-42 165 -166 309 -312 362 l-59 22 0 51 c0 29 -5 57 -12 64 -8
8 -59 12 -165 12 -140 0 -153 -2 -163 -19z m270 -140 c0 -116 4 -131 35 -131
25 0 35 17 35 61 0 34 15 37 63 13 137 -69 226 -197 262 -376 5 -25 9 -27 63
-30 56 -3 57 -3 57 -33 l0 -30 -620 0 -620 0 0 30 c0 29 1 30 59 35 l59 5 14
65 c32 160 160 314 286 345 25 7 27 5 27 -23 0 -45 10 -62 35 -62 31 0 35 15
35 131 l0 99 105 0 105 0 0 -99z"/>
<path d="M2793 653 c-7 -2 -13 -20 -13 -39 0 -33 -1 -34 -39 -34 -69 0 -71 -3
-71 -95 0 -92 2 -95 71 -95 26 0 39 -4 39 -14 0 -7 19 -48 43 -90 l42 -76 160
0 161 0 51 69 c42 55 54 80 59 123 l8 53 11 -55 c8 -38 26 -75 60 -122 l49
-68 161 0 161 0 42 75 c23 41 42 82 42 90 0 11 11 15 39 15 69 0 71 3 71 95 0
92 -2 95 -71 95 -38 0 -39 1 -39 34 0 22 -6 36 -16 40 -19 7 -1003 7 -1021 -1z
m977 -166 c0 -97 -2 -107 -31 -160 l-31 -57 -123 0 -124 0 -40 53 c-31 42 -41
64 -46 112 -9 73 -18 85 -62 85 -59 0 -70 -12 -78 -85 -6 -55 -13 -73 -46
-115 l-39 -50 -124 0 -123 0 -32 59 c-29 55 -31 66 -31 160 l0 101 465 0 465
0 0 -103z m-992 -4 c3 -30 1 -33 -22 -33 -23 0 -26 4 -26 36 0 31 3 35 23 32
17 -2 23 -11 25 -35z m1100 -2 c3 -29 1 -32 -20 -29 -26 3 -38 45 -16 59 21
14 33 5 36 -30z"/>
<path d="M3007 544 c-16 -16 -4 -51 44 -131 41 -68 55 -84 73 -81 35 5 29 38
-27 128 -49 79 -73 101 -90 84z"/>
<path d="M2911 486 c-14 -16 -9 -29 35 -94 31 -46 43 -53 66 -41 25 14 23 22
-22 90 -42 60 -58 70 -79 45z"/>
</g>
</svg>
