<svg width="406" height="165" xmlns="http://www.w3.org/2000/svg" preserveAspectRatio="xMidYMid meet" version="1.0">

 <g>
  <title>Layer 1</title>
  <g id="svg_1" fill="white" transform="translate(0 165) scale(0.1 -0.1)">
   <path stroke="null" id="svg_2" d="m276,1452c-15,-17 -16,-75 -19,-617c-3,-496 -1,-600 11,-611c10,-10 42,-14 113,-14c94,0 100,1 108,23c8,20 16,313 16,580c-1,102 5,128 19,90c4,-10 24,-47 45,-83c142,-243 185,-310 202,-315c25,-8 75,3 87,18c5,7 31,52 56,102c26,49 53,96 60,105c7,8 35,55 61,103c26,48 49,87 50,85c2,-2 5,-152 6,-333c1,-182 6,-340 10,-352c8,-22 14,-23 111,-23c57,0 109,4 117,9c11,7 13,108 8,617c-6,698 5,634 -108,634c-97,0 -111,-8 -160,-92c-23,-40 -58,-98 -77,-128c-35,-54 -70,-116 -153,-272c-23,-43 -44,-78 -48,-78c-10,0 -26,29 -103,183c-102,205 -204,374 -231,381c-12,3 -54,6 -93,6c-56,0 -74,-4 -88,-18z"/>
   <path stroke="null" id="svg_3" d="m1587,1452c-18,-19 -19,-56 -24,-619c-5,-500 -3,-600 8,-609c8,-6 58,-14 111,-17c94,-6 98,-6 111,16c10,16 14,87 16,272c2,138 5,252 6,254c2,2 23,-26 47,-62c24,-35 81,-118 127,-183c46,-66 107,-152 134,-192c27,-40 62,-79 78,-87c40,-21 252,-21 269,0c7,8 10,21 7,28c-2,7 -65,93 -139,192c-168,226 -268,371 -268,389c0,8 19,40 43,72c23,33 67,95 96,139c30,44 69,98 88,120c89,106 183,249 183,276l0,29l-127,0c-149,-1 -151,-2 -230,-117c-25,-38 -105,-153 -177,-258l-131,-190l-5,272c-3,149 -9,275 -13,279c-4,5 -49,10 -100,12c-83,4 -94,2 -110,-16z"/>
   <path stroke="null" id="svg_4" d="m3140,1431c-5,-11 -10,-40 -10,-64l0,-44l-59,-22c-143,-52 -270,-199 -311,-359l-14,-52l-51,0c-28,0 -56,-5 -63,-12c-16,-16 -16,-150 0,-166c17,-17 1329,-17 1346,0c7,7 12,41 12,83c0,42 -5,76 -12,83c-7,7 -35,12 -63,12l-51,0l-13,49c-42,165 -166,309 -312,362l-59,22l0,51c0,29 -5,57 -12,64c-8,8 -59,12 -165,12c-140,0 -153,-2 -163,-19zm270,-140c0,-116 4,-131 35,-131c25,0 35,17 35,61c0,34 15,37 63,13c137,-69 226,-197 262,-376c5,-25 9,-27 63,-30c56,-3 57,-3 57,-33l0,-30l-620,0l-620,0l0,30c0,29 1,30 59,35l59,5l14,65c32,160 160,314 286,345c25,7 27,5 27,-23c0,-45 10,-62 35,-62c31,0 35,15 35,131l0,99l105,0l105,0l0,-99z"/>
   <path stroke="null" id="svg_5" d="m2793,653c-7,-2 -13,-20 -13,-39c0,-33 -1,-34 -39,-34c-69,0 -71,-3 -71,-95c0,-92 2,-95 71,-95c26,0 39,-4 39,-14c0,-7 19,-48 43,-90l42,-76l160,0l161,0l51,69c42,55 54,80 59,123l8,53l11,-55c8,-38 26,-75 60,-122l49,-68l161,0l161,0l42,75c23,41 42,82 42,90c0,11 11,15 39,15c69,0 71,3 71,95c0,92 -2,95 -71,95c-38,0 -39,1 -39,34c0,22 -6,36 -16,40c-19,7 -1003,7 -1021,-1zm977,-166c0,-97 -2,-107 -31,-160l-31,-57l-123,0l-124,0l-40,53c-31,42 -41,64 -46,112c-9,73 -18,85 -62,85c-59,0 -70,-12 -78,-85c-6,-55 -13,-73 -46,-115l-39,-50l-124,0l-123,0l-32,59c-29,55 -31,66 -31,160l0,101l465,0l465,0l0,-103zm-992,-4c3,-30 1,-33 -22,-33c-23,0 -26,4 -26,36c0,31 3,35 23,32c17,-2 23,-11 25,-35zm1100,-2c3,-29 1,-32 -20,-29c-26,3 -38,45 -16,59c21,14 33,5 36,-30z"/>
   <path stroke="null" id="svg_6" d="m3007,544c-16,-16 -4,-51 44,-131c41,-68 55,-84 73,-81c35,5 29,38 -27,128c-49,79 -73,101 -90,84z"/>
   <path stroke="null" id="svg_7" d="m2911,486c-14,-16 -9,-29 35,-94c31,-46 43,-53 66,-41c25,14 23,22 -22,90c-42,60 -58,70 -79,45z"/>
  </g>
 </g>
</svg>